<svg height="800" width="800" xmlns="http://www.w3.org/2000/svg" viewBox="0 0 512.009 512.009" xml:space="preserve">
  <path style="fill:#439fde" d="M437.522 512.004H74.487C33.351 512.004 0 478.654 0 437.517V74.483C0 33.355 33.351.004 74.487.004h363.034c41.137 0 74.487 33.351 74.487 74.478v363.034c.001 41.138-33.35 74.488-74.486 74.488"/>
  <path style="fill:#2485bb" d="M52.97 398.901V113.108c0-33.209 26.924-60.142 60.134-60.142h285.802c33.209 0 60.134 26.933 60.134 60.142v285.793c0 33.209-26.924 60.134-60.134 60.134H113.103c-33.209-.001-60.133-26.925-60.133-60.134"/>
  <path style="fill:#439fde" d="M256.004 423.729c-92.487 0-167.724-75.238-167.724-167.724S163.518 88.28 256.004 88.28s167.724 75.238 167.724 167.724-75.237 167.725-167.724 167.725"/>
  <path style="fill:#2485bb" d="M212.311 162.374c13.789 13.789 13.789 36.149 0 49.938s-36.149 13.789-49.938 0c-13.789-13.789-13.789-36.149 0-49.938 13.789-13.789 36.149-13.789 49.938 0m137.324 137.325c13.789 13.789 13.789 36.149 0 49.938-13.789 13.789-36.149 13.789-49.938 0-13.789-13.789-13.789-36.149 0-49.938 13.789-13.789 36.149-13.789 49.938 0m0-87.389c-13.789 13.789-36.149 13.789-49.938 0-13.789-13.789-13.789-36.149 0-49.938 13.789-13.789 36.149-13.789 49.938 0 13.789 13.789 13.789 36.149 0 49.938M212.311 349.635c-13.789 13.789-36.149 13.789-49.938 0-13.789-13.789-13.789-36.149 0-49.938 13.789-13.789 36.149-13.789 49.938 0 13.788 13.789 13.788 36.149 0 49.938"/>
  <path style="fill:#ffe4b3" d="M324.668 333.496a8.8 8.8 0 0 1-6.241-2.587L181.096 193.578c-3.443-3.443-3.443-9.031 0-12.482 3.452-3.443 9.039-3.443 12.482 0l137.331 137.331a8.817 8.817 0 0 1 0 12.482 8.8 8.8 0 0 1-6.241 2.587"/>
  <path style="fill:#ffe4b3" d="M187.341 333.496a8.8 8.8 0 0 1-6.241-2.587 8.817 8.817 0 0 1 0-12.482l137.33-137.331c3.443-3.443 9.031-3.443 12.482 0 3.443 3.452 3.443 9.039 0 12.482l-137.33 137.331a8.8 8.8 0 0 1-6.241 2.587"/>
</svg>
