<svg width="800" height="800" viewBox="0 0 117 117" xmlns="http://www.w3.org/2000/svg">
  <g fill="none">
    <path d="M4.5 52.9h44.3c2.3 0 4.1-1.8 4.1-4.1V4.5c0-2.3-1.8-4.1-4.1-4.1H4.5C2.2.4.4 2.2.4 4.5v44.3c0 2.2 1.9 4.1 4.1 4.1ZM8.6 8.6h36.1v36.1H8.6V8.6Z" fill="#4A4A4A"/>
    <path d="M116.6 4.5c0-2.3-1.8-4.1-4.1-4.1H68.2c-2.3 0-4.1 1.8-4.1 4.1v44.3c0 2.3 1.8 4.1 4.1 4.1h44.3c2.3 0 4.1-1.8 4.1-4.1V4.5Zm-8.2 40.2H72.3V8.6h36.1v36.1ZM4.5 116.6h44.3c2.3 0 4.1-1.8 4.1-4.1V68.2c0-2.3-1.8-4.1-4.1-4.1H4.5c-2.3 0-4.1 1.8-4.1 4.1v44.3c0 2.2 1.9 4.1 4.1 4.1Zm4.1-44.3h36.1v36.1H8.6V72.3Z" fill="#17AB13"/>
    <path d="M112.5 64.1H68.2c-2.3 0-4.1 1.8-4.1 4.1v44.3c0 2.3 1.8 4.1 4.1 4.1h44.3c2.3 0 4.1-1.8 4.1-4.1V68.2c0-2.2-1.9-4.1-4.1-4.1Zm-4.1 44.3H72.3V72.3h36.1v36.1Z" fill="#4A4A4A"/>
  </g>
</svg>
