<svg xmlns="http://www.w3.org/2000/svg" viewBox="0 0 512 512" xml:space="preserve">
  <path style="fill:#65bafc" d="M82.167 293.087v-56.902l60.76-60.77h226.145l60.76 60.77v56.902H512v-73.921a41.08 41.08 0 0 0-12.032-29.051l-84.836-84.835a41.076 41.076 0 0 0-29.051-12.033H125.919a41.076 41.076 0 0 0-29.051 12.033l-84.836 84.835A41.078 41.078 0 0 0 0 219.166v73.921h82.167z"/>
  <path style="fill:#2ea8fc" d="M312.464 166.318v9.097H203.038v-9.097c0-12.506 9.828-22.767 22.169-23.457v-16.895a23.412 23.412 0 0 1-11.62-9.066l-10.086-15.061a23.46 23.46 0 0 1-3.554-8.592h90.357v49.613c12.343.691 22.16 10.951 22.16 23.458zm163.809 23.797a41.075 41.075 0 0 1 12.032 29.051v73.921H512v-73.921a41.08 41.08 0 0 0-12.032-29.051l-84.836-84.835a41.076 41.076 0 0 0-29.051-12.033h-23.694a41.076 41.076 0 0 1 29.051 12.033l84.835 84.835z"/>
  <path style="fill:#d3f1a3" d="M0 337.616h82.167v105.779c0 5.687-4.615 10.302-10.302 10.302H10.302C4.615 453.697 0 449.082 0 443.395V337.616zm512 0v105.779c0 5.687-4.615 10.302-10.302 10.302h-61.564c-5.687 0-10.302-4.615-10.302-10.302V337.616H512z"/>
  <path style="fill:#a4e540" d="M512 337.616v105.779c0 5.687-4.615 10.302-10.302 10.302h-23.694c5.687 0 10.302-4.615 10.302-10.302V337.616H512z"/>
  <path style="fill:#fff5f5" d="M0 275.992h47.262v47.262H0z"/>
  <path transform="rotate(-180 58.531 334.523)" style="fill:#fff5f5" d="M34.9 310.892h47.262v47.262H34.9z"/>
  <path style="fill:#9e9797" d="M41.081 275.992h41.081v41.081H41.081z"/>
  <path transform="rotate(-180 20.54 337.613)" style="fill:#9e9797" d="M0 317.073h41.081v41.081H0z"/>
  <path style="fill:#fff5f5" d="M429.838 275.992H477.1v47.262h-47.262z"/>
  <path transform="rotate(-180 488.369 334.523)" style="fill:#fff5f5" d="M464.738 310.892H512v47.262h-47.262z"/>
  <path style="fill:#9e9797" d="M470.919 275.992H512v41.081h-41.081z"/>
  <path style="fill:#756f6f" d="M488.306 275.991H512v41.084h-23.694z"/>
  <path transform="rotate(-180 450.378 337.613)" style="fill:#9e9797" d="M429.838 317.073h41.081v41.081h-41.081z"/>
  <path style="fill:#efe2dd" d="M488.306 317.074H512v41.084h-23.694z"/>
  <path style="fill:#ffa730" d="M275.884 157.248V76.856c0-5.562-2.336-10.96-6.654-14.465a18.14 18.14 0 0 0-21.558-1.025l-29.694 19.875a9.065 9.065 0 0 0-2.491 12.575l10.084 15.066a9.065 9.065 0 0 0 12.575 2.491l1.482-.992v46.867H226.53a9.064 9.064 0 0 0-9.064 9.064v18.129a9.064 9.064 0 0 0 9.064 9.064h62.452a9.064 9.064 0 0 0 9.064-9.064v-18.129a9.064 9.064 0 0 0-9.064-9.064h-13.098z"/>
</svg>
